<!-- Generated by IcoMoon.io -->
<svg version="1.1" xmlns="http://www.w3.org/2000/svg" width="512" height="512" viewBox="0 0 512 512">
<path d="M464 224h-416c-8.848 0-16-7.152-16-16s7.152-16 16-16h32l96-176c0-8.848 7.152-16 16-16h32c8.848 0 16 7.152 16 16l-96 176h224l-96-176c0-8.848 7.152-16 16-16h48c8.848 0 16 7.152 16 16l80 176h32c8.848 0 16 7.152 16 16s-7.152 16-16 16zM48 256h416c8.848 0 16 7.152 16 16l-32 224c0 8.848-7.152 16-16 16h-352c-8.848 0-16-7.152-16-16l-32-224c0-8.848 7.152-16 16-16zM352 448h32c8.848 0 16-7.152 16-16l16-96c0-8.848-7.152-16-16-16h-32c-8.848 0-16 7.152-16 16l-16 96c0 8.848 7.152 16 16 16zM224 432c0 8.848 7.152 16 16 16h32c8.848 0 16-7.152 16-16v-96c0-8.848-7.152-16-16-16h-32c-8.848 0-16 7.152-16 16v96zM112 432c0 8.848 7.152 16 16 16h32c8.848 0 16-7.152 16-16l-16-96c0-8.848-7.152-16-16-16h-32c-8.848 0-16 7.152-16 16l16 96z"></path>
</svg>
