<!-- Generated by IcoMoon.io -->
<svg version="1.1" xmlns="http://www.w3.org/2000/svg" width="40" height="40" viewBox="0 0 768 768">
<path fill="#000" d="M579.968 168.64c2.688 0 5.376 0.128 8 0.416 5.216 0.704 10.208 0.64 14.976 2.464 4.672 1.6 9.344 2.688 13.44 4.672 8.128 4.192 15.072 8.384 20.192 13.504 5.568 4.384 7.936 8.928 10.272 11.872 2.208 3.072 3.456 4.672 3.456 4.672s-1.952-0.8-5.312-2.368c-3.36-1.376-8.256-4.448-14.144-5.12-4.128-1.184-9.024-1.504-14.144-1.504-1.568 0-3.232 0.032-4.8 0.064-3.36 0.256-6.944 1.312-10.176 1.952-3.296 0.32-6.432 2.496-9.44 3.616-5.952 2.816-11.2 6.496-14.752 10.88-0.736 0.8-1.184 1.568-1.824 2.432 14.432 15.264 23.424 35.68 23.424 58.368 0 47.072-38.24 85.376-85.312 85.376-29.056 0-54.624-14.624-70.048-36.8l-53.024 84c54.784 61.44 103.040 139.136 103.040 139.136 33.184 45.728-25.248 126.304-25.248 126.304l-113.664-208.704-113.632 208.704c0 0-58.432-80.64-25.248-126.304 0 0 48.224-77.696 103.040-139.136l-52.992-84c-15.424 22.176-41.056 36.8-70.016 36.8-47.104 0-85.344-38.304-85.344-85.376 0-47.008 38.24-85.312 85.344-85.312 29.6 0 55.648 15.2 70.976 38.176 30.56 45.696 55.648 100.992 87.936 138.688 32.256-37.696 57.344-92.992 87.872-138.752 15.36-22.944 41.44-38.112 71.072-38.112 2.016 0 3.936 0.448 5.952 0.576 2.944-1.696 6.304-3.68 10.432-6.016 3.744-2.080 7.936-4.48 12.256-6.752 4.224-2.304 9.504-3.424 14.368-5.056 7.168-2.24 15.2-3.36 23.072-3.36zM513.76 308.672c8.736 0 17.504-3.328 24.192-9.984 13.312-13.312 13.312-34.944 0-48.256-6.688-6.656-15.392-9.984-24.128-9.984s-17.44 3.328-24.128 9.984l-7.68 12.064c-4.608 12.192-2.112 26.432 7.68 36.192 6.624 6.688 15.328 9.984 24.064 9.984zM195.968 308.672c8.704 0 17.44-3.328 24.064-9.984 9.856-9.76 12.224-24 7.584-36.192l-7.584-12.064c-6.624-6.656-15.36-9.984-24.096-9.984s-17.504 3.328-24.16 9.984c-13.344 13.312-13.344 34.944 0 48.256 6.656 6.656 15.424 9.984 24.192 9.984zM354.848 429.056c6.976 0 12.672-5.696 12.672-12.64 0-7.040-5.632-12.672-12.672-12.672-7.008 0-12.608 5.632-12.608 12.672 0 6.944 5.632 12.64 12.608 12.64zM579.968 104.64c-14.336 0-28.832 2.112-41.984 6.112l-3.744 1.152c-5.376 1.632-13.632 4.032-22.624 8.96-2.752 1.504-5.76 3.136-8.672 4.736-44.416 3.264-84.992 26.080-110.944 62.752-0.864 1.088-1.76 2.24-2.528 3.456-12.48 18.688-23.712 38.144-34.624 57.088-10.848-18.944-22.080-38.368-34.592-57.088-0.832-1.152-1.664-2.336-2.496-3.424-28.064-39.648-73.248-63.168-121.824-63.168-82.368 0-149.344 66.976-149.344 149.312s67.008 149.376 149.344 149.376c9.888 0 19.552-0.96 29.056-2.88-32.512 42.816-56.864 80.96-62.336 89.696-54.848 78.944 12.544 179.808 26.72 199.328 12.064 16.672 31.36 26.432 51.808 26.432 1.376 0 2.752 0 4.128-0.128 21.952-1.408 41.6-13.984 52.096-33.248l57.44-105.536 57.44 105.536c10.496 19.328 30.176 31.84 52.096 33.248 1.376 0.128 2.752 0.128 4.128 0.128 20.448 0 39.712-9.792 51.808-26.432 14.176-19.52 81.568-120.448 26.688-199.328-5.44-8.672-29.824-46.88-62.304-89.696 9.44 1.92 19.232 2.88 29.056 2.88 82.336 0 149.376-67.040 149.376-149.376 0-1.92-0.064-3.808-0.128-5.728 14.944-3.072 28.736-11.392 38.4-24.256 17.504-23.328 17.152-55.456-1.024-78.24l-1.568-2.144c-0.416-0.608-0.8-1.088-1.248-1.696-3.264-4.672-8.928-12.608-18.304-20.608-11.2-10.432-23.616-17.504-33.44-22.56-8.8-4.352-15.616-6.432-20.096-7.808l-1.984-0.64c-10.656-3.744-19.904-4.672-25.088-5.12l-1.728-0.192c-0.512-0.064-2.176-0.288-2.752-0.32-4.672-0.416-9.44-0.576-14.208-0.576z"></path>
</svg>
